<svg width="26" height="27" viewBox="0 0 26 27" fill="none" xmlns="http://www.w3.org/2000/svg">
<path d="M12.25 3C11.2831 3 10.5 3.78313 10.5 4.75V4.80513L6.06987 7.59375C5.81855 7.45498 5.53705 7.37987 5.25 7.375C4.28312 7.375 3.5 8.15813 3.5 9.125C3.5 9.77075 3.85175 10.3246 4.375 10.6291V20.745C3.85175 21.0495 3.5 21.6025 3.5 22.2491C3.5 23.216 4.28312 23.9991 5.25 23.9991C5.89575 23.9991 6.44962 23.6474 6.75412 23.1241H17.745C18.0495 23.6474 18.6025 23.9991 19.2491 23.9991C20.216 23.9991 20.9991 23.216 20.9991 22.2491C20.9991 21.9009 20.9029 21.5658 20.7253 21.2919L22.8594 17C23.2848 16.972 23.6854 16.7901 23.9864 16.4882C24.2874 16.1863 24.4682 15.7852 24.495 15.3597C24.5218 14.9342 24.3928 14.5136 24.132 14.1763C23.8713 13.8391 23.4966 13.6083 23.0781 13.5271L21.4104 8.52388C21.6869 8.21238 21.875 7.82213 21.875 7.375C21.875 6.40813 21.0919 5.625 20.125 5.625C19.677 5.625 19.2876 5.81313 18.9761 6.08963L13.9738 4.39475C13.8899 3.99988 13.6729 3.64582 13.359 3.3919C13.0452 3.13798 12.6537 2.99962 12.25 3ZM13.9738 5.625L18.4021 7.70313C18.536 8.4075 19.0934 8.964 19.7969 9.09788L21.4646 14.074C21.1679 14.3939 21.002 14.8136 21 15.25C21 15.6123 21.1129 15.9544 21.301 16.2344L19.1406 20.5C18.854 20.5193 18.5766 20.6093 18.3332 20.762C18.0898 20.9147 17.888 21.1253 17.7459 21.375H6.755C6.60336 21.114 6.38619 20.8972 6.125 20.7459V10.63C6.64825 10.3255 7 9.7725 7 9.12588V9.07075L11.4301 6.28213C11.6751 6.41163 11.9525 6.50088 12.25 6.50088C12.691 6.50088 13.6649 5.89538 13.9738 5.625Z" fill="#193C9D"/>
<rect x="24.5406" y="3.85345" width="2" height="29.7308" rx="1" transform="rotate(54.9775 24.5406 3.85345)" fill="#BB0101"/>
</svg>
