<svg width="32" height="20" viewBox="0 0 32 20" fill="none" xmlns="http://www.w3.org/2000/svg">
<path d="M6.22224 10.5279C7.9618 10.5279 9.45158 11.4238 10.1822 12.716L13.2729 11.3433C11.9894 8.99506 9.28536 7.37061 6.14758 7.37061C4.99113 7.37061 3.89513 7.59557 2.90402 7.99181L4.38669 10.8887C4.94758 10.6621 5.56624 10.5279 6.22224 10.5279ZM25.7778 10.5279C27.0818 10.5279 28.2418 11.0355 29.056 11.8288L31.6311 9.74887C30.1796 8.29334 28.0649 7.37061 25.7031 7.37061C22.5245 7.37061 19.7902 9.03689 18.5271 11.4357L21.7698 12.7949C22.4827 11.4594 24.0027 10.5279 25.7778 10.5279Z" fill="#EA596E"/>
<path d="M6.22222 8.94928C2.78578 8.94928 0 11.4231 0 14.4746C0 17.5262 2.78578 20 6.22222 20C9.65867 20 12.4444 17.5262 12.4444 14.4746C12.4444 11.4231 9.65956 8.94928 6.22222 8.94928ZM6.22222 18.4213C3.768 18.4213 1.77778 16.6548 1.77778 14.4746C1.77778 12.2945 3.768 10.5279 6.22222 10.5279C8.67644 10.5279 10.6667 12.2945 10.6667 14.4746C10.6667 16.6548 8.67733 18.4213 6.22222 18.4213ZM25.7778 8.94928C22.3422 8.94928 19.5556 11.4231 19.5556 14.4746C19.5556 17.5262 22.3422 20 25.7778 20C29.2151 20 32 17.5262 32 14.4746C32 11.4231 29.2151 8.94928 25.7778 8.94928ZM25.7778 18.4213C23.3236 18.4213 21.3333 16.6548 21.3333 14.4746C21.3333 12.2945 23.3236 10.5279 25.7778 10.5279C28.2329 10.5279 30.2222 12.2945 30.2222 14.4746C30.2222 16.6548 28.2329 18.4213 25.7778 18.4213Z" fill="#292F33"/>
<path d="M26.6524 14.4131C26.648 14.3603 26.6338 14.309 26.6169 14.2569C26.6 14.2056 26.5813 14.1574 26.5538 14.11C26.5422 14.0911 26.5404 14.069 26.528 14.0508L20.3058 5.36816C20.0418 5.00033 19.4933 4.8914 19.0782 5.12583C18.8124 5.27581 18.6835 5.53076 18.6827 5.79124H10.6667C10.176 5.79124 9.77777 6.14408 9.77777 6.58058C9.77777 7.01708 10.176 7.36991 10.6667 7.36991H19.5555C19.5795 7.36991 19.6 7.35886 19.624 7.35728L24.1582 13.6854H16C15.5093 13.6854 15.1111 14.0382 15.1111 14.4747C15.1111 14.9112 15.5093 15.264 16 15.264H25.7787C25.8818 15.264 25.9831 15.2419 26.0835 15.2096C26.1138 15.1993 26.1404 15.1883 26.1698 15.1756C26.1973 15.1622 26.2284 15.1567 26.256 15.1409C26.2827 15.1251 26.2987 15.1007 26.3227 15.0841C26.3715 15.0493 26.4142 15.0138 26.4533 14.9712C26.4898 14.9325 26.5191 14.8931 26.5458 14.8496C26.5724 14.8054 26.5947 14.7628 26.6124 14.7139C26.6311 14.6618 26.6418 14.6097 26.648 14.5552C26.6515 14.5268 26.6667 14.5031 26.6667 14.4747C26.6667 14.4534 26.6542 14.4345 26.6524 14.4131Z" fill="#DD2E44"/>
<path d="M19.1831 4.21326L16.6062 10.6203L11.336 5.27254C11.0124 4.94497 10.4507 4.91024 10.0818 5.19835C9.71289 5.48566 9.67555 5.98374 9.99822 6.3121L15.9218 12.3229L15.1627 14.2094C14.9982 14.6191 15.2391 15.0713 15.7013 15.2174C15.8 15.2489 15.9004 15.2639 16 15.2639C16.3653 15.2639 16.7076 15.0627 16.8373 14.7398L21.0711 4.21326H19.1831Z" fill="#DD2E44"/>
<path d="M6.22221 15.2641C6.08888 15.2641 5.95288 15.2372 5.82577 15.1812C5.38666 14.9862 5.20888 14.5119 5.42843 14.1219L8.15021 9.30224C8.16532 9.28014 9.77777 7.09526 9.77777 5.00274C9.77777 2.44371 7.73955 1.81146 7.7191 1.80514C7.25332 1.66701 7.00177 1.22024 7.15732 0.806632C7.31199 0.39302 7.81421 0.16727 8.28177 0.307772C8.4151 0.347239 11.5555 1.31891 11.5555 5.00274C11.5555 7.42441 9.92355 9.7719 9.66132 10.131L7.01777 14.8268C6.86221 15.1046 6.54843 15.2641 6.22221 15.2641Z" fill="#DD2E44"/>
<path d="M12.9884 2.36863C12.9404 2.36863 12.8907 2.36547 12.8418 2.35758L7.50843 1.56824C7.02487 1.49641 6.69687 1.08991 6.77776 0.659719C6.85865 0.230321 7.31198 -0.0609438 7.80087 0.0108857L13.1342 0.80022C13.6178 0.87205 13.9458 1.27856 13.8649 1.70874C13.792 2.09473 13.4151 2.36863 12.9884 2.36863ZM23.4515 5.00264C23.4249 5.00264 23.3991 5.00106 23.3724 4.9979L18.3307 4.43905C18 4.40274 17.7582 4.14384 17.7795 3.84863C17.8 3.55342 18.0755 3.32372 18.408 3.32372C18.4444 3.32372 22.0231 3.30952 23.7315 2.29838C23.9538 2.16656 24.2489 2.17445 24.464 2.3189C24.6764 2.46493 24.7635 2.71436 24.6782 2.9409L24.048 4.61981C23.9627 4.85109 23.72 5.00264 23.4515 5.00264Z" fill="#292F33"/>
<path d="M17.7778 14.4747C17.7778 15.3461 16.9822 16.0533 16 16.0533C15.0187 16.0533 14.2222 15.3461 14.2222 14.4747C14.2222 13.6032 15.0187 12.896 16 12.896C16.9822 12.896 17.7778 13.6032 17.7778 14.4747Z" fill="#66757F"/>
</svg>
