<svg width="35" height="20" viewBox="0 0 35 20" fill="none" xmlns="http://www.w3.org/2000/svg">
<path d="M12.381 17.1429H31.4286C31.4286 17.1429 34.2857 17.1429 34.2857 13.3333C34.2857 11.4286 34.2857 7.61905 33.3333 6.66667C32.381 5.71429 25.7143 0 22.8571 0H17.1429C14.2857 0 7.61905 6.66667 7.61905 6.66667L3.80952 7.61905C3.80952 7.61905 0.952381 8.57143 0.952381 10.4762V13.3333C0.952381 13.3333 0 13.6552 0 15.1971C0 17.1429 1.90476 17.1429 1.90476 17.1429H12.381Z" fill="#DD2E44"/>
<path d="M19.0476 1.90479H17.1429C15.2381 1.90479 9.5238 7.61907 9.5238 7.61907C9.5238 7.61907 14.2829 7.3686 19.0476 7.12479V1.90479ZM28.5714 4.76193C27.619 3.80955 23.8095 1.90479 21.9048 1.90479H20.9524V7.02764C24.7724 6.83336 28.1733 6.66669 28.5714 6.66669C29.5238 6.66669 29.5238 5.71431 28.5714 4.76193Z" fill="#BBDDF5"/>
<path d="M9.52382 20C11.6278 20 13.3333 18.2944 13.3333 16.1905C13.3333 14.0866 11.6278 12.381 9.52382 12.381C7.41988 12.381 5.71429 14.0866 5.71429 16.1905C5.71429 18.2944 7.41988 20 9.52382 20Z" fill="#292F33"/>
<path d="M9.52381 18.0952C10.5758 18.0952 11.4286 17.2424 11.4286 16.1905C11.4286 15.1385 10.5758 14.2857 9.52381 14.2857C8.47184 14.2857 7.61905 15.1385 7.61905 16.1905C7.61905 17.2424 8.47184 18.0952 9.52381 18.0952Z" fill="#CCD6DD"/>
<path d="M25.7143 20C27.8182 20 29.5238 18.2944 29.5238 16.1905C29.5238 14.0866 27.8182 12.381 25.7143 12.381C23.6103 12.381 21.9048 14.0866 21.9048 16.1905C21.9048 18.2944 23.6103 20 25.7143 20Z" fill="#292F33"/>
<path d="M25.7143 18.0952C26.7662 18.0952 27.619 17.2424 27.619 16.1905C27.619 15.1385 26.7662 14.2857 25.7143 14.2857C24.6623 14.2857 23.8095 15.1385 23.8095 16.1905C23.8095 17.2424 24.6623 18.0952 25.7143 18.0952Z" fill="#CCD6DD"/>
</svg>
