<svg width="27" height="23" viewBox="0 0 27 23" fill="none" xmlns="http://www.w3.org/2000/svg">
<path d="M0 21H27V22.5H0V21Z" fill="#939598"/>
<path d="M3.75 19.548L27 19.4993V0H12.75C8.25 0 7.5 2.25 7.5 2.25C7.5 2.25 3.75 11.9993 3.75 13.4993V19.548Z" fill="#D1D3D4"/>
<path d="M10.5 18C10.5 18.4148 10.164 18.75 9.75 18.75H3.75C3.336 18.75 3 18.4148 3 18V16.5C3 16.0853 3.336 15.75 3.75 15.75H9.75C10.164 15.75 10.5 16.0853 10.5 16.5V18Z" fill="#D1D3D4"/>
<path d="M27 21.75H3.39523C2.99698 21.75 2.54323 21.2467 2.38048 20.625L1.79323 18.375C1.63123 17.7533 2.24998 17.25 2.99998 17.25H27V21.75Z" fill="#F4900C"/>
<path d="M27 3H16.5052C15.015 3 13.575 4.34325 13.2907 6L12.516 10.5C12.231 12.1567 13.3432 13.5 15 13.5H27V3Z" fill="#414042"/>
<path d="M27 4.5H17.3213C15.75 4.5 15.228 5.45925 15.0248 6.64275L14.472 9.85725C14.268 11.0407 14.5665 12 15.75 12H27V4.5Z" fill="#3B88C3"/>
<path d="M12.75 0C8.25 0 7.5 2.25 7.5 2.25C7.5 2.25 3.756 11.985 3.75 13.4963C5.586 13.4693 6.83625 13.2382 7.5 11.25C8.25 9 9 6 9.75 4.5C10.5 3 11.25 2.25 13.5 2.25C15.3698 2.25 16.194 1.21125 16.422 0H12.75Z" fill="#414042"/>
<path d="M6.75002 9.00002C7.45802 6.87602 9.49727 3.41852 7.20002 3.03827C6.56927 4.70477 5.09477 8.65427 4.29227 11.25H4.50002C4.50002 11.25 6.00002 11.25 6.75002 9.00002Z" fill="#55ACEE"/>
<path d="M6.75 15C6.75 15.4147 6.414 15.75 6 15.75H4.5C4.086 15.75 3.75 15.4147 3.75 15C3.75 14.5853 4.086 14.25 4.5 14.25H6C6.414 14.25 6.75 14.5853 6.75 15Z" fill="#DD2E44"/>
</svg>
