<svg width="11" height="25" viewBox="0 0 11 25" fill="none" xmlns="http://www.w3.org/2000/svg">
<path d="M4.00566 24.2817L3.9726 24.2931C3.98404 24.2448 3.9993 24.1583 3.9993 24.0214C3.9993 23.8065 3.90011 23.4051 3.87277 23.3477C3.84543 23.2902 3.81554 23.2491 3.74941 23.2696C3.69918 23.2852 3.31386 23.5009 3.06778 23.5115C2.61061 23.5306 2.38997 23.0732 2.38997 23.0732C2.38997 23.0732 2.13626 23.2349 1.9347 23.3661C1.7325 23.4973 1.49787 23.6938 1.32492 23.8108C1.1774 23.9108 1.0089 23.9583 0.834678 23.9831C0.660455 24.008 0.518661 23.9994 0.476695 24.0037C0.434729 24.008 0.0818317 23.9604 0.0691147 24.3498L0.0710224 24.4399L0.0366866 24.4214C0.0366866 24.4214 0.00616577 24.542 0.00362237 24.5647C0.00107897 24.5881 -0.0116383 24.6016 0.0328712 24.6328C0.0773806 24.664 0.273223 24.7576 0.522476 24.8271C0.771729 24.8966 1.17613 24.9995 1.48833 24.9995C1.80053 24.9995 2.06632 24.93 2.22019 24.8888C2.37471 24.8477 2.70535 24.769 2.73714 24.7853C2.76893 24.8016 2.8109 24.9207 2.84714 24.9576C2.88402 24.9945 3.87086 24.9002 3.94144 24.8839C4.01265 24.8675 4.03427 24.7995 4.03427 24.769V24.3087C4.03555 24.2895 4.02092 24.2768 4.00566 24.2817ZM10.9663 21.6207L10.6458 21.3164C10.6338 21.3051 10.6153 21.3086 10.6083 21.3249L10.5943 21.3611C10.5683 21.3193 10.518 21.249 10.4233 21.159C10.2739 21.0171 9.92924 20.837 9.87138 20.8235C9.81351 20.8093 9.76519 20.8079 9.73594 20.8781C9.71369 20.932 9.60941 21.4072 9.45362 21.6271C9.16495 22.0349 8.70078 21.9235 8.70078 21.9235L8.60349 22.5108C8.56089 22.7718 8.54245 23.1051 8.50939 23.3321C8.48141 23.5257 8.4032 23.703 8.30464 23.8697C8.20672 24.037 8.10753 24.1533 8.08209 24.1931C8.0573 24.2321 7.79151 24.5058 8.05348 24.7746L8.1177 24.8321L8.08273 24.8498C8.08273 24.8498 8.14631 24.9555 8.1603 24.9732C8.17429 24.991 8.1762 25.0108 8.22643 24.9931C8.27666 24.9754 8.47187 24.8675 8.68488 24.698C8.89853 24.5278 9.2368 24.2463 9.44281 23.976C9.64946 23.7058 9.776 23.4299 9.84976 23.2696C9.92351 23.1094 10.0869 22.7711 10.1194 22.754C10.1518 22.737 10.2618 22.7796 10.312 22.7725C10.3616 22.7654 10.9485 21.8491 10.9841 21.7774C11.0197 21.7058 10.9873 21.6405 10.9663 21.6207Z" fill="#292F33"/>
<path d="M4.82538 8.1593C5.41481 8.84017 6.77235 10.209 6.80224 10.3728C6.96183 11.2402 7.19265 12.2211 7.13288 12.8225C7.08964 13.2587 7.37196 13.7431 7.48323 13.9452C7.62185 14.1963 7.97983 14.5821 8.20874 14.5552C8.35117 14.5389 8.56926 14.2502 8.4529 14.1041C8.2259 13.8204 8.26342 13.3885 8.12099 12.9984C7.83549 12.2147 8.09238 10.7331 7.70069 9.76217C7.53791 9.36004 7.23461 8.56144 5.90505 7.19049C5.58013 7.51816 4.82538 8.1593 4.82538 8.1593Z" fill="#EEC2AD"/>
<path d="M2.76632 23.7342C1.96134 23.8115 1.58809 23.569 1.67202 23.4392C1.77694 23.2775 1.75341 23.1576 1.75469 23.059C1.77249 21.3278 1.4552 18.81 1.4552 18.81C1.4552 18.5632 1.45711 18.2334 1.65359 17.7022C2.14828 16.3667 4.16583 12.2482 4.16583 12.2482C4.51427 11.5688 5.29192 11.3312 5.90106 11.7205C6.51084 12.1092 6.61449 12.717 6.37413 13.656C5.9195 15.4348 4.48884 17.6292 3.89241 18.959C4.03484 20.4632 3.78177 21.6916 3.91467 23.1129C3.93374 23.3172 3.57131 23.6569 2.76632 23.7342Z" fill="#2A6797"/>
<path d="M9.59232 22.1227C9.36087 22.5149 8.97555 22.7908 8.57623 22.7171C7.76934 21.3525 5.4256 18.9432 5.4256 18.9432C5.27236 18.7659 5.06825 18.5269 4.87877 17.9921C4.40315 16.6481 3.29042 12.1218 3.29042 12.1218C3.11747 11.3629 3.5295 10.5899 4.20986 10.3984C4.89021 10.2055 5.34357 10.5629 5.75497 11.4239C6.53516 13.0559 6.87216 15.7432 7.27084 17.1616C8.45987 18.2737 8.78607 19.717 9.98909 20.8149C9.94776 21.4227 9.82377 21.7305 9.59232 22.1227Z" fill="#4289C1"/>
<path d="M4.38278 0.481961C3.35525 0.14082 1.90742 0.857855 1.76944 2.16426C1.57678 3.98699 2.61067 5.4161 3.61404 5.19695C4.66574 4.96715 5.29777 4.64232 5.63413 3.38202C5.96986 2.12171 5.41032 0.823102 4.38278 0.481961Z" fill="#F7DECE"/>
<path d="M5.37523 3.72304C6.67555 1.68967 3.20635 2.20812 3.20635 2.20812C2.54888 2.29819 3.09698 3.47977 2.83819 4.17837C2.66079 4.66207 3.57578 4.82164 3.57578 4.82164C3.57578 4.82164 3.98654 4.77554 4.05139 5.32946L4.05203 5.33442C4.06793 5.47556 4.06729 5.64506 4.02532 5.87556C3.81613 7.01743 5.20928 7.57205 5.41784 6.42806C5.5005 5.97557 5.42547 5.59116 5.33899 5.23867L5.33072 5.20676C5.20037 4.68193 5.05413 4.22589 5.37523 3.72304Z" fill="#F7DECE"/>
<path d="M5.66221 0.746448C5.11474 0.0535272 3.41957 -0.442227 2.44735 0.593963C1.71358 0.52304 1.49549 1.31667 1.59086 1.75214C1.66717 2.09967 2.45053 2.11669 2.69661 2.76705C2.81933 2.5862 2.82823 2.23938 2.78499 2.05853C3.05268 2.30038 2.99863 3.00819 4.00582 3.37061C4.97994 3.72097 4.88456 4.66284 4.88456 4.66284C4.88456 4.66284 5.35955 4.35432 5.66984 3.8763C6.26372 2.96422 6.26563 1.51029 5.66221 0.746448Z" fill="#292F33"/>
<path d="M7.17787 13.6609C7.17787 13.6609 7.17787 14.3702 5.90617 14.3702H2.79178C3.42763 11.1233 2.73201 10.2283 2.94502 8.28425C3.17456 6.18917 4.39921 4.90049 5.1546 5.20617C6.31311 5.67498 6.86694 7.07926 7.01891 9.36086C7.17088 11.6425 7.17787 13.6609 7.17787 13.6609Z" fill="#FA743E"/>
<path d="M3.83968 7.83948C3.73349 8.8317 3.63494 10.9835 3.53511 11.1197C3.00544 11.8438 2.44017 12.7084 1.95884 13.0552C1.60975 13.3062 1.44316 13.8878 1.3694 14.124C1.27784 14.4176 1.23397 15.002 1.40565 15.1928C1.5131 15.312 1.86982 15.3183 1.89907 15.1148C1.95629 14.7183 2.29711 14.4644 2.4885 14.0743C2.87255 13.2914 4.1309 12.5374 4.58172 11.5325C4.76866 11.1154 5.15144 10.3062 5.27034 8.17849C4.81253 8.10048 3.83968 7.83948 3.83968 7.83948Z" fill="#F7DECE"/>
</svg>
