<svg width="20" height="21" viewBox="0 0 20 21" fill="none" xmlns="http://www.w3.org/2000/svg">
<path d="M18.496 3.87981C18.9357 4.03433 19.3166 4.32158 19.586 4.70188C19.8554 5.08218 20.0001 5.53675 20 6.00281V16.0028C20 17.13 19.5522 18.211 18.7552 19.008C17.9582 19.805 16.8772 20.2528 15.75 20.2528H5.75C5.28394 20.2529 4.82937 20.1082 4.44907 19.8388C4.06877 19.5694 3.78152 19.1885 3.627 18.7488L5.724 18.7528H15.75C16.4793 18.7528 17.1788 18.4631 17.6945 17.9474C18.2103 17.4316 18.5 16.7322 18.5 16.0028V6.00281L18.496 5.95181V3.87981ZM15.246 0.252808C15.8427 0.252808 16.415 0.48986 16.837 0.911817C17.2589 1.33377 17.496 1.90607 17.496 2.50281V15.4998C17.496 16.0965 17.2589 16.6688 16.837 17.0908C16.415 17.5128 15.8427 17.7498 15.246 17.7498H2.25C1.65326 17.7498 1.08097 17.5128 0.65901 17.0908C0.237053 16.6688 0 16.0965 0 15.4998V2.50281C0 1.90607 0.237053 1.33377 0.65901 0.911817C1.08097 0.48986 1.65326 0.252808 2.25 0.252808H15.247H15.246ZM15.246 1.75281H2.25C2.05109 1.75281 1.86032 1.83183 1.71967 1.97248C1.57902 2.11313 1.5 2.3039 1.5 2.50281V15.4998C1.5 15.9138 1.836 16.2498 2.25 16.2498H15.247C15.4459 16.2498 15.6367 16.1708 15.7773 16.0301C15.918 15.8895 15.997 15.6987 15.997 15.4998V2.50281C15.997 2.3039 15.918 2.11313 15.7773 1.97248C15.6367 1.83183 15.4459 1.75281 15.247 1.75281H15.246ZM8.75 5.00281C8.94891 5.00281 9.13968 5.08183 9.28033 5.22248C9.42098 5.36313 9.5 5.5539 9.5 5.75281V8.25281H12C12.1989 8.25281 12.3897 8.33183 12.5303 8.47248C12.671 8.61313 12.75 8.80389 12.75 9.00281C12.75 9.20172 12.671 9.39248 12.5303 9.53314C12.3897 9.67379 12.1989 9.75281 12 9.75281H9.5V12.2528C9.5 12.4517 9.42098 12.6425 9.28033 12.7831C9.13968 12.9238 8.94891 13.0028 8.75 13.0028C8.55109 13.0028 8.36032 12.9238 8.21967 12.7831C8.07902 12.6425 8 12.4517 8 12.2528V9.75281H5.5C5.30109 9.75281 5.11032 9.67379 4.96967 9.53314C4.82902 9.39248 4.75 9.20172 4.75 9.00281C4.75 8.80389 4.82902 8.61313 4.96967 8.47248C5.11032 8.33183 5.30109 8.25281 5.5 8.25281H8V5.75281C8 5.5539 8.07902 5.36313 8.21967 5.22248C8.36032 5.08183 8.55109 5.00281 8.75 5.00281Z" fill="#193C9D"/>
</svg>
