<svg width="22" height="22" viewBox="0 0 22 22" fill="none" xmlns="http://www.w3.org/2000/svg">
<path d="M19.5292 4.53266L19.396 4.48586V4.627V6.699H19.3957L19.3963 6.70682L19.4 6.7539V16.75C19.4 17.4528 19.1208 18.1269 18.6238 18.6238C18.1269 19.1208 17.4528 19.4 16.75 19.4H6.72419H6.724L4.62719 19.396L4.48577 19.3957L4.53266 19.5292C4.69405 19.9884 4.99407 20.3862 5.39126 20.6676C5.78846 20.949 6.26324 21.1001 6.75 21.1H16.75C17.9037 21.1 19.0101 20.6417 19.8259 19.8259C20.6417 19.0101 21.1 17.9037 21.1 16.75V6.75001C21.1001 6.26324 20.949 5.78846 20.6676 5.39126C20.3862 4.99407 19.9884 4.69405 19.5292 4.53266ZM17.9077 1.5883C17.467 1.14759 16.8693 0.9 16.246 0.9H3.25C2.62674 0.9 2.02901 1.14759 1.5883 1.5883C1.14759 2.02901 0.9 2.62674 0.9 3.25V16.247C0.9 16.8703 1.14759 17.468 1.5883 17.9087C2.02901 18.3494 2.62674 18.597 3.25 18.597H16.246C16.8693 18.597 17.467 18.3494 17.9077 17.9087C18.3484 17.468 18.596 16.8703 18.596 16.247V3.25C18.596 2.62674 18.3484 2.02901 17.9077 1.5883ZM3.25 2.6H16.246C16.4185 2.6 16.5848 2.66858 16.7066 2.79038C16.8285 2.91228 16.897 3.07761 16.897 3.25V16.247C16.897 16.4194 16.8285 16.5847 16.7066 16.7066C16.5847 16.8285 16.4194 16.897 16.247 16.897H3.25C2.89123 16.897 2.6 16.6058 2.6 16.247V3.25C2.6 3.07761 2.66848 2.91228 2.79038 2.79038C2.91228 2.66848 3.07761 2.6 3.25 2.6ZM4.5535 7.56868L8.43156 12.7415C8.92676 13.4021 9.94603 13.302 10.3033 12.5578L14.0838 4.68345C14.1095 4.63007 14.0909 4.56597 14.0407 4.53452C13.4652 4.17367 12.7037 4.39849 12.4164 5.01405L9.47748 11.3118L6.40055 7.46561C5.93313 6.88133 5.0509 6.86238 4.55881 7.42605C4.5236 7.46638 4.52139 7.52584 4.5535 7.56868Z" fill="#193C9D" stroke="#193C9D" stroke-width="0.2"/>
</svg>
