<svg width="77" height="77" viewBox="0 0 77 77" fill="none" xmlns="http://www.w3.org/2000/svg">
<rect width="77" height="77" rx="38.5" fill="white"/>
<path d="M70.9821 35.7334C70.9923 35.6734 70.9983 35.6128 71 35.552C70.998 35.4981 70.9926 35.4444 70.9837 35.3911C70.9624 26.791 67.5302 18.5505 61.4402 12.478C55.3503 6.40544 47.1 2.99679 38.4998 3L38.4527 3.00065L38.4478 3H38.4455L38.4391 3.00065C29.8704 3.01301 21.654 6.412 15.5808 12.4567C9.50761 18.5014 6.07009 26.7017 6.01752 35.2702C5.9946 35.3807 5.99416 35.4947 6.01622 35.6053C6.03663 44.206 9.46837 52.4473 15.5584 58.5206C21.6483 64.5939 29.899 68.0031 38.4998 68L38.5495 67.9994L38.5518 67.9997H38.557C47.1257 67.9882 55.3424 64.5901 61.4162 58.5461C67.4901 52.502 70.9285 44.3021 70.9821 35.7337V35.7334ZM17.3572 14.3575C22.6129 9.0727 29.6645 5.95856 37.1108 5.6338C36.786 13.0802 33.6723 20.132 28.388 25.3886C23.1348 30.6695 16.0884 33.7827 8.64679 34.1106C8.97778 26.6686 12.0856 19.6209 17.3572 14.3575ZM8.64256 36.7142C16.7763 36.387 24.4859 32.9982 30.2266 27.2268C36.0013 21.4829 39.3906 13.768 39.7147 5.62958C47.2177 5.92912 54.3323 9.04481 59.6406 14.3557C64.949 19.6666 68.0612 26.7827 68.3571 34.2858C60.2261 34.6347 52.522 38.022 46.7683 43.7779C41.0147 49.5339 37.6305 57.2393 37.285 65.3704C29.782 65.0709 22.6674 61.9552 17.359 56.6443C12.0507 51.3334 8.93845 44.2173 8.64256 36.7142ZM39.8886 65.3662C40.2326 57.9267 43.3416 50.8835 48.6066 45.6162C53.8717 40.3489 60.9134 37.2368 68.3529 36.8894C68.0136 44.3305 64.9062 51.3764 59.6401 56.6447C54.3741 61.9131 47.3296 65.0236 39.8886 65.3662Z" fill="#DAE0EF"/>
</svg>
