<svg width="105" height="86" viewBox="0 0 105 86" fill="none" xmlns="http://www.w3.org/2000/svg">
<rect y="2" width="103" height="83" rx="41.5" fill="white"/>
<path d="M72.5469 23.1382C75.3315 23.1075 77.9901 21.9718 79.9378 19.9811C81.8856 17.9903 82.9629 15.3076 82.9328 12.523C82.9027 9.73835 81.7676 7.08 79.7773 5.13272C77.787 3.18544 75.1045 2.10873 72.3199 2.13947C69.5353 2.17021 66.8767 3.30587 64.929 5.29662C62.9813 7.28738 61.904 9.97015 61.9341 12.7548C61.9642 15.5394 63.0992 18.1977 65.0895 20.145C67.0798 22.0923 69.7623 23.169 72.5469 23.1382Z" fill="white" stroke="#DAE0EF" stroke-width="2.5"/>
<path d="M25.6553 27.4258L40.9404 21.4224L62.1497 32.2366L41.2462 49.7209L62.5009 64.7255L49.3035 84.4758" fill="white"/>
<path d="M25.6553 27.4258L40.9404 21.4224L62.1497 32.2366L41.2462 49.7209L62.5009 64.7255L49.3035 84.4758" stroke="#DAE0EF" stroke-width="2.5" stroke-linecap="round" stroke-linejoin="round"/>
<path d="M70.4709 35.8897L80.6036 40.1547L103 23.0001" fill="white"/>
<path d="M70.4709 35.8897L80.6036 40.1547L103 23.0001" stroke="#DAE0EF" stroke-width="2.5" stroke-linecap="round" stroke-linejoin="round"/>
<path d="M35.2933 58.4161L29.6867 66.7098L10.8755 78.5745" fill="white"/>
<path d="M35.2933 58.4161L29.6867 66.7098L10.8755 78.5745" stroke="#DAE0EF" stroke-width="2.5" stroke-linecap="round" stroke-linejoin="round"/>
</svg>
