<svg width="28" height="28" viewBox="0 0 28 28" fill="none" xmlns="http://www.w3.org/2000/svg">
<path d="M14 0C11.2311 0 8.52431 0.821086 6.22202 2.35943C3.91973 3.89777 2.12532 6.08427 1.06569 8.64243C0.00606596 11.2006 -0.271181 14.0155 0.269012 16.7313C0.809205 19.447 2.14258 21.9416 4.10051 23.8995C6.05845 25.8574 8.55301 27.1908 11.2687 27.731C13.9845 28.2712 16.7994 27.9939 19.3576 26.9343C21.9157 25.8747 24.1022 24.0803 25.6406 21.778C27.1789 19.4757 28 16.7689 28 14C28 10.287 26.525 6.72601 23.8995 4.1005C21.274 1.475 17.713 0 14 0V0ZM14 26C11.6266 26 9.30655 25.2962 7.33316 23.9776C5.35977 22.6591 3.8217 20.7849 2.91345 18.5922C2.0052 16.3995 1.76756 13.9867 2.23058 11.6589C2.69361 9.33114 3.83649 7.19295 5.51472 5.51472C7.19295 3.83649 9.33115 2.6936 11.6589 2.23058C13.9867 1.76755 16.3995 2.00519 18.5922 2.91345C20.7849 3.8217 22.6591 5.35977 23.9776 7.33316C25.2962 9.30655 26 11.6266 26 14C26 17.1826 24.7357 20.2348 22.4853 22.4853C20.2349 24.7357 17.1826 26 14 26Z" fill="#DA737B"/>
<path d="M13 7C13 6.44771 13.4477 6 14 6V6C14.5523 6 15 6.44772 15 7V16C15 16.5523 14.5523 17 14 17V17C13.4477 17 13 16.5523 13 16V7Z" fill="#DA737B"/>
<path d="M14 20C13.7033 20 13.4133 20.088 13.1666 20.2528C12.92 20.4176 12.7277 20.6519 12.6142 20.926C12.5006 21.2001 12.4709 21.5017 12.5288 21.7926C12.5867 22.0836 12.7296 22.3509 12.9393 22.5607C13.1491 22.7704 13.4164 22.9133 13.7074 22.9712C13.9983 23.0291 14.2999 22.9993 14.574 22.8858C14.8481 22.7723 15.0824 22.58 15.2472 22.3334C15.412 22.0867 15.5 21.7967 15.5 21.5C15.5 21.1022 15.342 20.7206 15.0607 20.4393C14.7794 20.158 14.3978 20 14 20Z" fill="#DA737B"/>
</svg>
