<svg width="28" height="28" viewBox="0 0 28 28" fill="none" xmlns="http://www.w3.org/2000/svg">
<path d="M14 0C11.2311 0 8.52431 0.821086 6.22202 2.35943C3.91973 3.89777 2.12532 6.08427 1.06569 8.64243C0.00606596 11.2006 -0.271181 14.0155 0.269012 16.7313C0.809205 19.447 2.14258 21.9416 4.10051 23.8995C6.05845 25.8574 8.55301 27.1908 11.2687 27.731C13.9845 28.2712 16.7994 27.9939 19.3576 26.9343C21.9157 25.8747 24.1022 24.0803 25.6406 21.778C27.1789 19.4757 28 16.7689 28 14C28 10.287 26.525 6.72601 23.8995 4.1005C21.274 1.475 17.713 0 14 0V0ZM14 26C11.6266 26 9.30655 25.2962 7.33316 23.9776C5.35977 22.6591 3.8217 20.7849 2.91345 18.5922C2.0052 16.3995 1.76756 13.9867 2.23058 11.6589C2.69361 9.33114 3.83649 7.19295 5.51472 5.51472C7.19295 3.83649 9.33115 2.6936 11.6589 2.23058C13.9867 1.76755 16.3995 2.00519 18.5922 2.91345C20.7849 3.8217 22.6591 5.35977 23.9776 7.33316C25.2962 9.30655 26 11.6266 26 14C26 17.1826 24.7357 20.2348 22.4853 22.4853C20.2349 24.7357 17.1826 26 14 26Z" fill="#193C9D"/>
<path d="M7.51972 10.6089C7.23269 10.1488 7.38774 9.56876 7.86605 9.31327V9.31327C8.34436 9.05778 8.96479 9.22363 9.25182 9.6837L15.2151 19.2418C15.5021 19.7019 15.347 20.2819 14.8687 20.5374V20.5374C14.3904 20.7929 13.77 20.6271 13.483 20.167L7.51972 10.6089Z" fill="#193C9D"/>
<path d="M17.284 8.08222C17.502 7.48452 18.171 7.15372 18.7783 7.34334V7.34334C19.3856 7.53296 19.7012 8.1712 19.4832 8.76889L15.5939 19.4334C15.3759 20.0311 14.7069 20.3619 14.0996 20.1723V20.1723C13.4923 19.9826 13.1767 19.3444 13.3947 18.7467L17.284 8.08222Z" fill="#193C9D"/>
</svg>
