<svg width="23" height="20" viewBox="0 0 23 20" fill="none" xmlns="http://www.w3.org/2000/svg">
<path d="M2.15564 12.8381C2.0232 12.7056 1.84356 12.6312 1.65625 12.6312C1.46894 12.6312 1.2893 12.7056 1.15686 12.8381C1.02441 12.9705 0.95 13.1502 0.95 13.3375V16.6187C0.95 17.3282 1.23183 18.0086 1.73349 18.5102C2.23515 19.0119 2.91555 19.2937 3.625 19.2937H19.375C20.0845 19.2937 20.7649 19.0119 21.2665 18.5102C21.7682 18.0086 22.05 17.3282 22.05 16.6187V13.3375C22.05 13.1502 21.9756 12.9705 21.8431 12.8381C21.7107 12.7056 21.5311 12.6312 21.3438 12.6312C21.1564 12.6312 20.9768 12.7056 20.8444 12.8381C20.7119 12.9705 20.6375 13.1502 20.6375 13.3375V16.6187C20.6375 16.9535 20.5045 17.2747 20.2677 17.5114C20.031 17.7482 19.7098 17.8812 19.375 17.8812H3.625C3.29016 17.8812 2.96904 17.7482 2.73228 17.5114C2.49551 17.2747 2.3625 16.9535 2.3625 16.6187V13.3375C2.3625 13.1502 2.28809 12.9705 2.15564 12.8381Z" fill="#193C9D" stroke="#193C9D" stroke-width="0.1"/>
<path d="M12.2562 12.9556V1.65625C12.2562 1.45568 12.1765 1.26333 12.0347 1.1215C11.8929 0.979676 11.7005 0.9 11.5 0.9C11.2994 0.9 11.107 0.979676 10.9652 1.1215C10.8234 1.26332 10.7437 1.45568 10.7437 1.65625V12.9556L8.09783 10.3084L8.09781 10.3084C7.95583 10.1664 7.76326 10.0867 7.56247 10.0867C7.36168 10.0867 7.16912 10.1664 7.02714 10.3084C6.88516 10.4504 6.8054 10.643 6.8054 10.8438C6.8054 11.0445 6.88516 11.2371 7.02714 11.3791L10.9645 15.3165L10.9646 15.3166L11.0353 15.2459C11.0963 15.307 11.1687 15.3555 11.2485 15.3886C11.3282 15.4216 11.4137 15.4387 11.5 15.4387C11.5863 15.4387 11.6718 15.4216 11.7515 15.3886L12.2562 12.9556ZM12.2562 12.9556L14.9021 10.3084L14.9021 10.3084C15.0441 10.1664 15.2367 10.0867 15.4375 10.0867C15.6383 10.0867 15.8308 10.1664 15.9728 10.3084C16.1148 10.4504 16.1946 10.643 16.1946 10.8438C16.1946 11.0445 16.1148 11.2371 15.9728 11.3791L12.0354 15.3165L12.2562 12.9556Z" fill="#193C9D" stroke="#193C9D" stroke-width="0.2"/>
</svg>
