<svg width="26" height="25" viewBox="0 0 26 25" fill="none" xmlns="http://www.w3.org/2000/svg">
<path d="M19.6354 6.85466C20.4052 6.84639 21.1401 6.53267 21.6786 5.98251C22.217 5.43235 22.5149 4.69083 22.5066 3.92107C22.4983 3.1513 22.1846 2.41635 21.6344 1.87789C21.0843 1.33944 20.3428 1.04158 19.573 1.04986C18.8032 1.05813 18.0683 1.37186 17.5298 1.92201C16.9914 2.47217 16.6935 3.21369 16.7018 3.98346C16.7101 4.75322 17.0238 5.48817 17.5739 6.02663C18.1241 6.56509 18.8656 6.86294 19.6354 6.85466Z" stroke="#193C9D" stroke-width="2"/>
<path d="M5.71499 8.03182L10.3433 6.3728L16.7596 9.35113L10.4272 14.1779L16.8559 18.312L12.8553 23.7622" stroke="#193C9D" stroke-width="2" stroke-linecap="round" stroke-linejoin="round"/>
<path d="M19.2822 10.7151L20.847 11.5453L24.2947 8.23625" stroke="#193C9D" stroke-width="2" stroke-linecap="round" stroke-linejoin="round"/>
<path d="M8.62192 16.5782L6.9223 18.8676L1.22462 22.145" stroke="#193C9D" stroke-width="2" stroke-linecap="round" stroke-linejoin="round"/>
</svg>
