<svg width="9" height="9" viewBox="0 0 9 9" fill="none" xmlns="http://www.w3.org/2000/svg">
<path d="M4.5 9C6.98528 9 9 6.98528 9 4.5C9 2.01472 6.98528 0 4.5 0C2.01472 0 0 2.01472 0 4.5C0 6.98528 2.01472 9 4.5 9Z" fill="#77B255"/>
<path d="M6.5 4.50003C6.5 6.01203 7.198 7.05527 7.9505 7.38653C8.605 6.60503 9 5.59903 9 4.50003C9 3.40103 8.605 2.39503 7.9505 1.61353C7.198 1.94478 6.5 2.98803 6.5 4.50003Z" fill="#A6D388"/>
<path d="M6.75 4.50005C6.75 2.98805 7.198 1.9448 7.9505 1.61355C7.83925 1.4808 7.719 1.35655 7.5935 1.23755C6.8515 1.6513 6.25 2.64455 6.25 4.50005C6.25 6.3553 6.8515 7.3488 7.5935 7.76255C7.719 7.64355 7.8395 7.5193 7.9505 7.38655C7.198 7.0553 6.75 6.01205 6.75 4.50005Z" fill="white"/>
<path d="M2.5 4.50003C2.5 2.98803 1.802 1.94503 1.0495 1.61353C0.395 2.39503 0 3.40103 0 4.50003C0 5.59903 0.395 6.60503 1.0495 7.38653C1.802 7.05503 2.5 6.01203 2.5 4.50003Z" fill="#A6D388"/>
<path d="M1.04944 1.61354C1.80194 1.94504 2.24994 2.98804 2.24994 4.50004C2.24994 6.01204 1.80194 7.05504 1.04944 7.38654C1.16069 7.51929 1.28094 7.64329 1.40644 7.76254C2.14819 7.34879 2.74994 6.35529 2.74994 4.50004C2.74994 2.64479 2.14844 1.65129 1.40644 1.23779C1.28094 1.35679 1.16044 1.48079 1.04944 1.61354Z" fill="white"/>
</svg>
