<svg width="20" height="22" viewBox="0 0 20 22" fill="none" xmlns="http://www.w3.org/2000/svg">
<path d="M7 8H8.5V17H7V8Z" fill="#193C9D"/>
<path d="M11.5 8H13V17H11.5V8Z" fill="#193C9D"/>
<path d="M1 3.4H0.9V3.5V5V5.1H1H2.4V20C2.4 20.4243 2.56857 20.8313 2.86863 21.1314C3.16869 21.4314 3.57565 21.6 4 21.6H16C16.4243 21.6 16.8313 21.4314 17.1314 21.1314C17.4314 20.8313 17.6 20.4243 17.6 20V5.1H19H19.1V5V3.5V3.4H19H10H1ZM4.1 19.9V5.1H15.9V19.9H4.1Z" fill="#193C9D" stroke="#193C9D" stroke-width="0.2"/>
<path d="M7 0.4H6.9V0.5V2V2.1H7H13H13.1V2V0.5V0.4H13H7Z" fill="#193C9D" stroke="#193C9D" stroke-width="0.2"/>
</svg>
