<svg width="13" height="14" viewBox="0 0 13 14" fill="none" xmlns="http://www.w3.org/2000/svg">
<path fill-rule="evenodd" clip-rule="evenodd" d="M8.03177 7.00014L12.6823 2.34948C13.1059 1.92591 13.1059 1.24126 12.6823 0.817681C12.2588 0.394106 11.5741 0.394106 11.1506 0.817681L6.5 5.46833L1.84944 0.817681C1.42588 0.394106 0.74124 0.394106 0.317674 0.817681C-0.105891 1.24126 -0.105891 1.92591 0.317674 2.34948L4.96823 7.00014L0.317674 11.6508C-0.105891 12.0744 -0.105891 12.759 0.317674 13.1826C0.528915 13.3938 0.806237 13.5 1.08356 13.5C1.36088 13.5 1.6382 13.3938 1.84944 13.1826L6.5 8.53194L11.1506 13.1826C11.3618 13.3938 11.6391 13.5 11.9164 13.5C12.1938 13.5 12.4711 13.3938 12.6823 13.1826C13.1059 12.759 13.1059 12.0744 12.6823 11.6508L8.03177 7.00014Z" fill="#193C9D"/>
</svg>
