<svg width="10" height="15" viewBox="0 0 10 15" fill="none" xmlns="http://www.w3.org/2000/svg">
<path fill-rule="evenodd" clip-rule="evenodd" d="M8.77767 4.34955C9.04951 4.58402 9.08535 5.00088 8.85815 5.28332C8.63031 5.56378 8.22569 5.60068 7.95321 5.36621L4.51031 2.39241L1.0612 5.24484C0.784657 5.47285 0.380826 5.42759 0.158526 5.14154C0.0637114 5.01942 0.017104 4.87222 0.0173719 4.72645C0.0177274 4.53297 0.100276 4.34099 0.257844 4.21013L4.11662 1.01932C4.35587 0.821714 4.6962 0.825753 4.93086 1.02835L8.77767 4.34955ZM8.75665 10.79L4.89787 13.9809C4.65927 14.1785 4.31893 14.1744 4.08364 13.9718L0.236822 10.6506C0.0848736 10.5191 0.00687717 10.3308 0.00722665 10.1406C0.00750184 9.99085 0.0565803 9.84121 0.156343 9.71685C0.38418 9.4364 0.789447 9.39949 1.06193 9.63397L4.50483 12.6078L7.95329 9.75534C8.23048 9.52733 8.63431 9.57259 8.85597 9.85864C9.07891 10.144 9.0332 10.5607 8.75665 10.79Z" fill="#193C9D"/>
</svg>
