<svg width="16" height="15" viewBox="0 0 16 15" fill="none" xmlns="http://www.w3.org/2000/svg">
<path d="M0.888909 10.0111C0.785764 9.90794 0.645869 9.84999 0.5 9.84999C0.354131 9.84999 0.214236 9.90794 0.111091 10.0111C0.00794631 10.1142 -0.05 10.2541 -0.05 10.4V12.9C-0.05 13.4437 0.165982 13.9651 0.550431 14.3496C0.934881 14.734 1.45631 14.95 2 14.95H14C14.5437 14.95 15.0651 14.734 15.4496 14.3496C15.834 13.9651 16.05 13.4437 16.05 12.9V10.4C16.05 10.2541 15.9921 10.1142 15.8889 10.0111C15.7858 9.90794 15.6459 9.84999 15.5 9.84999C15.3541 9.84999 15.2142 9.90794 15.1111 10.0111C15.0079 10.1142 14.95 10.2541 14.95 10.4V12.9C14.95 13.1519 14.8499 13.3936 14.6718 13.5717C14.4936 13.7499 14.252 13.85 14 13.85H2C1.74804 13.85 1.50641 13.7499 1.32825 13.5717C1.15009 13.3936 1.05 13.1519 1.05 12.9V10.4C1.05 10.2541 0.992054 10.1142 0.888909 10.0111Z" fill="white" stroke="white" stroke-width="0.1"/>
<path d="M8.60002 10.0515L10.5753 8.07531L10.5753 8.07529C10.6879 7.96265 10.8407 7.89937 11 7.89937C11.1593 7.89937 11.3121 7.96265 11.4247 8.07529C11.5374 8.18793 11.6007 8.3407 11.6007 8.5C11.6007 8.6593 11.5374 8.81207 11.4247 8.92471L8.42482 11.9246L8.60002 10.0515ZM8.60002 10.0515V1.5C8.60002 1.34087 8.53681 1.18826 8.42429 1.07574C8.31176 0.963214 8.15915 0.9 8.00002 0.9C7.84089 0.9 7.68828 0.963214 7.57576 1.07574C7.46323 1.18826 7.40002 1.34087 7.40002 1.5V10.0515L5.42475 8.07531L5.42473 8.07529C5.31209 7.96265 5.15932 7.89937 5.00002 7.89937C4.84072 7.89937 4.68795 7.96265 4.57531 8.07529C4.46267 8.18793 4.39939 8.3407 4.39939 8.5C4.39939 8.6593 4.46267 8.81207 4.57531 8.92471L7.57522 11.9246L8.60002 10.0515ZM7.77006 12.0551C7.69721 12.0248 7.63103 11.9805 7.57531 11.9247L7.77006 12.0551ZM7.77006 12.0551C7.84295 12.0853 7.9211 12.1009 8.00002 12.1009M7.77006 12.0551L8.00002 12.1009M8.00002 12.1009C8.07894 12.1009 8.15709 12.0853 8.22998 12.0551M8.00002 12.1009L8.22998 12.0551M8.22998 12.0551C8.30284 12.0248 8.36901 11.9805 8.42473 11.9247L8.22998 12.0551Z" fill="white" stroke="white" stroke-width="0.2"/>
</svg>
