<svg width="24" height="28" viewBox="0 0 24 28" fill="none" xmlns="http://www.w3.org/2000/svg">
<path d="M23.285 12.173C23.1714 11.8689 22.8805 11.6667 22.5554 11.6667H13.1638L18.581 1.134C18.7513 0.802667 18.6634 0.397444 18.3702 0.167222C18.2287 0.0552222 18.0583 0 17.8888 0C17.7075 0 17.5263 0.0637778 17.3809 0.189L11.6665 5.124L0.269762 14.9668C0.0239839 15.1791 -0.0646826 15.5221 0.0488729 15.8262C0.162428 16.1303 0.45254 16.3333 0.777651 16.3333H10.1693L4.75209 26.866C4.58176 27.1973 4.66965 27.6026 4.96287 27.8328C5.10443 27.9448 5.27476 28 5.44432 28C5.62554 28 5.80676 27.9362 5.95221 27.811L11.6665 22.876L23.0633 13.0332C23.3099 12.8209 23.3978 12.4779 23.285 12.173Z" fill="#FFAC33"/>
</svg>
