<svg width="20" height="24" viewBox="0 0 20 24" fill="none" xmlns="http://www.w3.org/2000/svg">
<path d="M15.9908 10.9636C15.9908 14.3331 13.2656 14.8564 13.2656 17.9967C13.2656 19.6179 11.5635 19.7544 10.2679 19.7544C9.14897 19.7544 6.67831 19.3468 6.67831 17.9957C6.67831 14.8569 4 14.3336 4 10.9636C4 7.80765 6.88052 5.24927 10.0406 5.24927C13.2019 5.24927 15.9908 7.80765 15.9908 10.9636Z" fill="#FFD983"/>
<path d="M12.3993 22.1902C12.3993 22.6235 11.1817 23.4984 10.1281 23.4984C9.07455 23.4984 7.85693 22.6235 7.85693 22.1902C7.85693 21.7569 9.074 21.9286 10.1281 21.9286C11.1817 21.9286 12.3993 21.7569 12.3993 22.1902Z" fill="#CCD6DD"/>
<path d="M12.6936 10.5695C12.4805 10.3649 12.1361 10.3649 11.923 10.5695L10.1282 12.2927L8.33335 10.5695C8.12024 10.3649 7.77577 10.3649 7.56266 10.5695C7.34955 10.7741 7.34955 11.1048 7.56266 11.3094L9.58312 13.2493V18.7888C9.58312 19.0782 9.82729 19.3121 10.1282 19.3121C10.429 19.3121 10.6732 19.0782 10.6732 18.7888V13.2493L12.6936 11.3094C12.9068 11.1048 12.9068 10.7741 12.6936 10.5695Z" fill="#FFCC4D"/>
<path d="M13.3984 21.4054C13.3984 21.9831 12.91 22.452 12.3083 22.452H7.94798C7.34626 22.452 6.85791 21.9831 6.85791 21.4054V18.2656H13.3984V21.4054Z" fill="#99AAB5"/>
<path d="M6.85738 21.9285C6.59576 21.9285 6.36467 21.7469 6.32052 21.491C6.27092 21.2064 6.4715 20.9363 6.76854 20.8892L13.309 19.8427C13.6055 19.7914 13.8867 19.9876 13.9358 20.2728C13.9854 20.5575 13.7848 20.8275 13.4878 20.8746L6.94731 21.9212C6.91734 21.9264 6.88681 21.9285 6.85738 21.9285ZM6.85738 19.8353C6.59576 19.8353 6.36467 19.6537 6.32052 19.3979C6.27092 19.1132 6.4715 18.8432 6.76854 18.7961L13.309 17.7495C13.6055 17.6987 13.8867 17.8944 13.9358 18.1796C13.9854 18.4643 13.7848 18.7343 13.4878 18.7814L6.94731 19.828C6.91734 19.8332 6.88681 19.8353 6.85738 19.8353Z" fill="#CCD6DD"/>
<rect width="0.968497" height="3" rx="0.484248" transform="matrix(0.46971 0.882821 -0.89783 0.440341 19.5459 6.55615)" fill="#FFD983"/>
<rect width="0.96663" height="3" rx="0.483315" transform="matrix(0.414785 -0.909919 0.921915 0.387391 0 7.21973)" fill="#FFD983"/>
<rect width="0.981892" height="3" rx="0.490946" transform="matrix(0.749123 0.662431 -0.692264 0.721644 15.6931 2.52417)" fill="#FFD983"/>
<rect width="1.16528" height="3" rx="0.582639" transform="matrix(0.999954 -0.00958185 0.0103946 0.999946 9.51709 0.0112305)" fill="#FFD983"/>
<rect width="0.985196" height="3" rx="0.492598" transform="matrix(0.801921 -0.597431 0.628575 0.777749 3.92529 3.10962)" fill="#FFD983"/>
</svg>
