<svg width="16" height="17" viewBox="0 0 16 17" fill="none" xmlns="http://www.w3.org/2000/svg">
<path d="M8 1.5C9.5913 1.5 11.1174 2.13214 12.2426 3.25736C13.3679 4.38258 14 5.9087 14 7.5C14 10.367 12.065 13.006 8.268 15.422C8.18787 15.4729 8.09492 15.4999 8 15.4999C7.90508 15.4999 7.81213 15.4729 7.732 15.422C3.935 13.006 2 10.367 2 7.5C2 5.9087 2.63214 4.38258 3.75736 3.25736C4.88258 2.13214 6.4087 1.5 8 1.5ZM8 2.5C6.67392 2.5 5.40215 3.02678 4.46447 3.96447C3.52678 4.90215 3 6.17392 3 7.5C3 9.825 4.54 12.058 7.68 14.192L8 14.405L8.32 14.192C11.46 12.058 13 9.825 13 7.5C13 6.17392 12.4732 4.90215 11.5355 3.96447C10.5979 3.02678 9.32608 2.5 8 2.5ZM8 6C8.19698 6 8.39204 6.0388 8.57403 6.11418C8.75601 6.18956 8.92137 6.30005 9.06066 6.43934C9.19995 6.57863 9.31044 6.74399 9.38582 6.92597C9.4612 7.10796 9.5 7.30302 9.5 7.5C9.5 7.69698 9.4612 7.89204 9.38582 8.07403C9.31044 8.25601 9.19995 8.42137 9.06066 8.56066C8.92137 8.69995 8.75601 8.81044 8.57403 8.88582C8.39204 8.9612 8.19698 9 8 9C7.60218 9 7.22064 8.84196 6.93934 8.56066C6.65804 8.27936 6.5 7.89782 6.5 7.5C6.5 7.10218 6.65804 6.72064 6.93934 6.43934C7.22064 6.15804 7.60218 6 8 6Z" fill="#193C9D"/>
</svg>
