<svg width="15" height="19" viewBox="0 0 15 19" fill="none" xmlns="http://www.w3.org/2000/svg">
<ellipse cx="7.5" cy="7.125" rx="7.5" ry="7.125" fill="#75C782"/>
<path d="M14.75 8.68998C13.6801 12.517 8.88632 17.7492 7.36407 18.9998C5.70132 17.516 1.54427 13.1413 0.25 8.68998C0.25 4.54593 4.43028 6.77185 6.8123 6.77185C9.19433 6.77185 15.8199 4.86297 14.75 8.68998Z" fill="#75C782"/>
<path d="M6.93333 4.00003C6.53571 3.99803 6.14388 4.09941 5.79337 4.29498C5.44285 4.49056 5.14472 4.77414 4.92599 5.12004C4.70726 5.46595 4.57484 5.86323 4.54073 6.27591C4.50663 6.68858 4.57191 7.1036 4.73067 7.48335C4.26667 7.95557 4 8.60002 4 9.27779C4 10.6667 5.06667 11.7778 6.4 11.7778C6.66667 11.7778 6.93333 11.7167 7.2 11.6222V14H8.26667V11.0945C8.53333 11.1722 8.8 11.2222 9.06667 11.2222C9.45188 11.2222 9.83332 11.1432 10.1892 10.9896C10.5451 10.8361 10.8685 10.611 11.1408 10.3273C11.4132 10.0435 11.6293 9.70671 11.7767 9.33599C11.9241 8.96528 12 8.56794 12 8.16668C12 7.76542 11.9241 7.36809 11.7767 6.99738C11.6293 6.62666 11.4132 6.28982 11.1408 6.00609C10.8685 5.72235 10.5451 5.49728 10.1892 5.34373C9.83332 5.19017 9.45188 5.11114 9.06667 5.11114H8.928C8.48533 4.42225 7.73333 4.00003 6.93333 4.00003ZM6.93333 5.11114C7.63733 5.11114 8.21867 5.68336 8.26667 6.41669C8.512 6.28891 8.8 6.22225 9.06667 6.22225C9.56174 6.22225 10.0365 6.42711 10.3866 6.79176C10.7367 7.15641 10.9333 7.65099 10.9333 8.16668C10.9333 8.68238 10.7367 9.17696 10.3866 9.54161C10.0365 9.90626 9.56174 10.1111 9.06667 10.1111C8.55467 10.1111 8.06933 9.89446 7.712 9.50557C7.66123 9.82984 7.50135 10.1247 7.26098 10.3374C7.0206 10.5502 6.71541 10.6669 6.4 10.6667C6.04638 10.6667 5.70724 10.5203 5.45719 10.2599C5.20714 9.99942 5.06667 9.64615 5.06667 9.27779C5.06667 8.51113 5.49333 8.18891 6.13333 7.77224C5.70667 7.20002 5.6 6.86669 5.6 6.50002C5.6 6.13167 5.74048 5.7784 5.99052 5.51793C6.24057 5.25747 6.57971 5.11114 6.93333 5.11114V5.11114Z" fill="white"/>
</svg>
