<svg width="15" height="19" viewBox="0 0 15 19" fill="none" xmlns="http://www.w3.org/2000/svg">
<ellipse cx="7.5" cy="7.125" rx="7.5" ry="7.125" fill="#BB0101"/>
<path d="M14.75 8.68998C13.6801 12.517 8.88632 17.7492 7.36407 18.9998C5.70132 17.516 1.54427 13.1413 0.25 8.68998C0.25 4.54593 4.43028 6.77185 6.8123 6.77185C9.19433 6.77185 15.8199 4.86297 14.75 8.68998Z" fill="#BB0101"/>
<path d="M5.41675 7.78369H6.33341V10.992H5.41675V7.78369ZM6.79175 8.70036H7.70842V11.9087H6.79175V8.70036ZM8.16675 7.78369H9.08342V10.992H8.16675V7.78369Z" fill="white"/>
<path d="M10.4327 6.46051C10.2325 4.88293 8.88175 3.65918 7.25008 3.65918C5.98692 3.65918 4.88967 4.39755 4.38871 5.56126C3.40421 5.85551 2.66675 6.78455 2.66675 7.78418C2.66675 9.0478 3.69479 10.0758 4.95842 10.0758V9.15918C4.20033 9.15918 3.58341 8.54226 3.58341 7.78418C3.58341 7.14114 4.13296 6.52101 4.80854 6.4023L5.07483 6.3551L5.16283 6.09889C5.48504 5.1593 6.28529 4.57585 7.25008 4.57585C8.51371 4.57585 9.54175 5.60389 9.54175 6.86751V7.32585H10.0001C10.5056 7.32585 10.9167 7.73697 10.9167 8.24251C10.9167 8.74805 10.5056 9.15918 10.0001 9.15918H9.54175V10.0758H10.0001C11.0112 10.0758 11.8334 9.2536 11.8334 8.24251C11.8329 7.83163 11.6946 7.43278 11.4407 7.10974C11.1868 6.7867 10.8319 6.55811 10.4327 6.46051Z" fill="white"/>
</svg>
