<svg width="30" height="40" viewBox="0 0 30 40" fill="none" xmlns="http://www.w3.org/2000/svg">
<circle cx="15" cy="15" r="15" fill="#193C9D"/>
<path d="M29.5 18.2951C27.3603 26.3519 17.7726 37.3672 14.7281 40C11.4026 36.8763 3.08853 27.6663 0.5 18.2951C0.5 9.57078 8.86056 14.2569 13.6246 14.2569C18.3887 14.2569 31.6397 10.2383 29.5 18.2951Z" fill="#193C9D"/>
<path d="M19.9029 11.3033C20.4809 11.2971 21.0328 11.0615 21.4371 10.6484C21.8415 10.2352 22.0651 9.67842 22.0589 9.10039C22.0527 8.52236 21.8171 7.97047 21.404 7.56613C20.9909 7.1618 20.434 6.93813 19.856 6.94435C19.278 6.95056 18.7261 7.18614 18.3218 7.59926C17.9174 8.01239 17.6938 8.56921 17.7 9.14724C17.7062 9.72528 17.9418 10.2772 18.3549 10.6815C18.768 11.0858 19.3248 11.3095 19.9029 11.3033Z" stroke="white" stroke-width="1.5"/>
<path d="M9.44969 12.1873L12.9252 10.9415L17.7433 13.178L12.9882 16.8025L17.8156 19.9069L14.8115 23.9996" stroke="white" stroke-width="1.5" stroke-linecap="round" stroke-linejoin="round"/>
<path d="M19.6376 14.2021L20.8126 14.8255L23.4016 12.3407" stroke="white" stroke-width="1.5" stroke-linecap="round" stroke-linejoin="round"/>
<path d="M11.6326 18.6049L10.3563 20.324L6.07779 22.7851" stroke="white" stroke-width="1.5" stroke-linecap="round" stroke-linejoin="round"/>
</svg>
