<svg width="33" height="28" viewBox="0 0 33 28" fill="none" xmlns="http://www.w3.org/2000/svg">
<path d="M22.44 19.6846C23.8587 18.896 23.6748 15.8574 22.0307 12.8928C21.3253 11.6163 20.4582 10.5826 19.591 9.85995C18.554 10.6295 17.2979 11.0469 16.0066 11.0509C14.7133 11.048 13.455 10.6306 12.4164 9.85995C11.5492 10.5826 10.6844 11.6174 9.97675 12.8928C8.3314 15.8563 8.14987 18.896 9.57206 19.6846C10.2057 20.0454 10.874 19.7748 11.5631 19.1111C11.4341 19.8261 11.3695 20.5513 11.37 21.2779C11.37 24.675 12.6882 27.4199 14.3104 27.4199C15.2886 27.4199 15.773 26.4198 16.0054 24.89C16.2367 26.4094 16.7223 27.4199 17.6936 27.4199C19.3088 27.4199 20.6374 24.6738 20.6374 21.2779C20.6374 20.5148 20.5657 19.7864 20.4431 19.1123C21.1369 19.7771 21.8029 20.0523 22.4388 19.6869L22.44 19.6846ZM16.0043 9.89464C16.6603 9.90443 17.3117 9.78365 17.9206 9.53933C18.5295 9.29501 19.0837 8.93202 19.551 8.47149C20.0183 8.01095 20.3894 7.46208 20.6425 6.85681C20.8957 6.25153 21.026 5.60195 21.0258 4.94586C21.0255 4.28977 20.8948 3.64028 20.6412 3.03518C20.3876 2.43008 20.0162 1.88147 19.5486 1.42127C19.0809 0.961065 18.5265 0.598463 17.9174 0.354566C17.3083 0.110669 16.6568 -0.00965219 16.0008 0.000604679C14.7019 0.0209137 13.4631 0.551284 12.5518 1.47719C11.6406 2.40309 11.1301 3.65024 11.1306 4.94933C11.131 6.24842 11.6424 7.4952 12.5543 8.42047C13.4661 9.34574 14.7053 9.87524 16.0043 9.89464ZM25.9411 13.0327C26.9977 13.0018 28.0006 12.5604 28.7371 11.8021C29.4735 11.0438 29.8854 10.0284 29.8854 8.97137C29.8854 7.91433 29.4735 6.89891 28.7371 6.14063C28.0006 5.38235 26.9977 4.94092 25.9411 4.91004C24.8637 4.9102 23.8304 5.33835 23.0686 6.10033C22.3069 6.8623 21.879 7.89567 21.8792 8.9731C21.8793 10.0505 22.3075 11.0838 23.0695 11.8455C23.8314 12.6073 24.8648 13.0352 25.9422 13.035L25.9411 13.0327ZM30.8898 15.4955C30.3094 14.4456 29.5995 13.5969 28.8872 13.0038C28.0352 13.6351 27.0038 13.9774 25.9434 13.9808C25.0693 13.9808 24.2553 13.7415 23.543 13.3449C24.1165 14.6087 24.4715 15.8886 24.5374 17.0333C24.6461 18.7862 24.098 20.0858 23.0019 20.6929C22.767 20.8219 22.5116 20.9096 22.2469 20.9519C22.181 21.4051 22.1359 21.8769 22.1359 22.374C22.1359 25.1641 23.217 27.4176 24.5501 27.4176C25.3526 27.4176 25.7526 26.5967 25.9422 25.341C26.1307 26.5897 26.5296 27.4176 27.3297 27.4176C28.6537 27.4176 29.7463 25.1629 29.7463 22.3764C29.7463 21.7485 29.685 21.1507 29.5844 20.5957C30.1533 21.1426 30.7014 21.3681 31.224 21.0675C32.3883 20.42 32.238 17.9248 30.8887 15.4944L30.8898 15.4955ZM6.06747 13.0327C6.87051 13.0322 7.65538 12.7937 8.32287 12.3472C8.99035 11.9007 9.51047 11.2664 9.81746 10.5243C10.1245 9.78228 10.2045 8.96587 10.0476 8.17832C9.89065 7.39076 9.50372 6.66742 8.93572 6.09975C8.36772 5.53207 7.64416 5.14555 6.85652 4.98906C6.06887 4.83256 5.25251 4.91311 4.51064 5.22053C3.76877 5.52794 3.1347 6.04842 2.6886 6.71616C2.2425 7.38389 2.0044 8.16891 2.0044 8.97195C2.00471 10.0494 2.43288 11.0827 3.19479 11.8446C3.95669 12.6065 4.98997 13.0347 6.06747 13.035V13.0327ZM8.99856 20.6894C7.15781 19.6661 6.989 16.6148 8.47131 13.3426C7.73862 13.7585 6.91114 13.9787 6.06862 13.982C4.96325 13.982 3.95037 13.612 3.12018 13.0038C2.40909 13.5958 1.70031 14.4445 1.11756 15.4932C-0.231784 17.9259 -0.379784 20.4211 0.785716 21.0663C1.30603 21.3646 1.85525 21.1415 2.42065 20.5969C2.3168 21.184 2.26457 21.779 2.26456 22.3752C2.26456 25.1641 3.34565 27.4164 4.67881 27.4164C5.48125 27.4164 5.88131 26.5955 6.07093 25.341C6.26172 26.5897 6.66062 27.4176 7.45843 27.4176C8.78465 27.4176 9.875 25.1629 9.875 22.3764C9.875 21.8757 9.82875 21.4028 9.76284 20.9495C9.49524 20.9074 9.23701 20.8189 8.99972 20.6882L8.99856 20.6894Z" fill="#193C9D"/>
</svg>
