<svg width="30" height="30" viewBox="0 0 30 30" fill="none" xmlns="http://www.w3.org/2000/svg">
<path d="M4.5 6C2.85 6 1.5 7.35 1.5 9C1.5 10.65 2.85 12 4.5 12C6.15 12 7.5 10.665 7.5 9C7.5 7.335 6.165 6 4.5 6ZM15 3C14.4067 3 13.8266 3.17595 13.3333 3.50559C12.8399 3.83524 12.4554 4.30377 12.2284 4.85195C12.0013 5.40013 11.9419 6.00333 12.0576 6.58527C12.1734 7.16721 12.4591 7.70176 12.8787 8.12132C13.2982 8.54088 13.8328 8.8266 14.4147 8.94236C14.9967 9.05811 15.5999 8.9987 16.1481 8.77164C16.6962 8.54458 17.1648 8.16006 17.4944 7.66671C17.8241 7.17336 18 6.59335 18 6C18 4.335 16.665 3 15 3ZM25.5 0C23.85 0 22.5 1.35 22.5 3C22.5 4.65 23.85 6 25.5 6C27.15 6 28.5 4.665 28.5 3C28.5 1.335 27.165 0 25.5 0ZM2.25 13.5C1.005 13.5 0 14.505 0 15.75V22.5H1.5V30H7.5V22.5H9V15.75C9 14.505 7.995 13.5 6.75 13.5H2.25ZM12.75 10.5C11.505 10.5 10.5 11.505 10.5 12.75V19.5H12V27H18V19.5H19.5V12.75C19.5 11.505 18.495 10.5 17.25 10.5H12.75ZM23.25 7.5C22.005 7.5 21 8.505 21 9.75V16.5H22.5V24H28.5V16.5H30V9.75C30 8.505 28.995 7.5 27.75 7.5H23.25Z" fill="#EBB0B5"/>
</svg>
