<svg width="23" height="31" viewBox="0 0 23 31" fill="none" xmlns="http://www.w3.org/2000/svg">
<path d="M23 9.5C23 14.7467 17.8513 19 11.5 19C5.14873 19 0 14.7467 0 9.5C0 4.25329 5.14873 0 11.5 0C17.8513 0 23 4.25329 23 9.5Z" fill="#193C9D"/>
<path d="M22.5 12.5C20.7514 17.3087 15.9451 25.175 13.5821 29.296C13.1975 29.9667 12.1998 30.0082 11.7403 29.3865C9.32726 26.1217 4.49703 20.4941 1.49996 14.5C-2.50002 7.5 7.88785 11.9227 11.8199 11.9227C15.752 11.9227 24.5 6.99999 22.5 12.5Z" fill="#193C9D"/>
</svg>
