<svg width="28" height="28" viewBox="0 0 28 28" fill="none" xmlns="http://www.w3.org/2000/svg">
<path d="M14 8.40003C13.52 8.40003 13.2 8.08003 13.2 7.60003V1.20002C13.2 0.720024 13.52 0.400024 14 0.400024C14.48 0.400024 14.8 0.720024 14.8 1.20002V7.60003C14.8 8.08003 14.48 8.40003 14 8.40003Z" fill="#6C82C1"/>
<path opacity="0.3" d="M14 27.6C13.52 27.6 13.2 27.28 13.2 26.8V20.4C13.2 19.92 13.52 19.6 14 19.6C14.48 19.6 14.8 19.92 14.8 20.4V26.8C14.8 27.28 14.48 27.6 14 27.6Z" fill="#6C82C1"/>
<path opacity="0.3" d="M17.2 9.20002C17.04 9.20002 16.96 9.20002 16.8 9.12002C16.48 8.88002 16.32 8.48002 16.56 8.08002L19.76 2.56002C20 2.24002 20.4 2.08002 20.8 2.32002C21.12 2.56002 21.28 2.96002 21.04 3.36002L17.84 8.88002C17.68 9.04002 17.44 9.20002 17.2 9.20002Z" fill="#6C82C1"/>
<path opacity="0.3" d="M7.60004 25.84C7.44004 25.84 7.36004 25.84 7.20004 25.76C6.88004 25.52 6.72004 25.12 6.96004 24.72L10.16 19.2C10.4 18.88 10.8 18.72 11.2 18.96C11.52 19.2 11.68 19.6 11.44 20L8.24004 25.52C8.08004 25.68 7.84004 25.84 7.60004 25.84Z" fill="#6C82C1"/>
<path opacity="0.93" d="M10.8 9.19995C10.56 9.19995 10.32 9.03995 10.16 8.79995L6.96004 3.27995C6.72004 2.95995 6.88004 2.47995 7.20004 2.23995C7.52004 1.99995 8.00004 2.15995 8.24004 2.47995L11.44 7.99995C11.68 8.31995 11.52 8.79995 11.2 9.03995C11.04 9.19995 10.96 9.19995 10.8 9.19995Z" fill="#6C82C1"/>
<path opacity="0.3" d="M20.4 25.8401C20.16 25.8401 19.92 25.6801 19.76 25.4401L16.56 19.9201C16.32 19.6001 16.48 19.1201 16.8 18.8801C17.12 18.6401 17.6 18.8001 17.84 19.1201L21.04 24.6401C21.28 24.9601 21.12 25.4401 20.8 25.6801C20.64 25.7601 20.56 25.8401 20.4 25.8401Z" fill="#6C82C1"/>
<path opacity="0.65" d="M7.60003 14.8001H1.20002C0.720024 14.8001 0.400024 14.4801 0.400024 14.0001C0.400024 13.5201 0.720024 13.2001 1.20002 13.2001H7.60003C8.08003 13.2001 8.40003 13.5201 8.40003 14.0001C8.40003 14.4801 8.08003 14.8001 7.60003 14.8001Z" fill="#6C82C1"/>
<path opacity="0.3" d="M26.8 14.8001H20.4C19.92 14.8001 19.6 14.4801 19.6 14.0001C19.6 13.5201 19.92 13.2001 20.4 13.2001H26.8C27.28 13.2001 27.6 13.5201 27.6 14.0001C27.6 14.4801 27.28 14.8001 26.8 14.8001Z" fill="#6C82C1"/>
<path opacity="0.86" d="M8.48002 11.52C8.32002 11.52 8.24002 11.52 8.08002 11.44L2.56002 8.24004C2.24002 8.00004 2.08002 7.60004 2.32002 7.20004C2.56002 6.88004 2.96002 6.72004 3.36002 6.96004L8.88002 10.16C9.20002 10.4 9.36002 10.8 9.12002 11.2C8.96002 11.44 8.72002 11.52 8.48002 11.52Z" fill="#6C82C1"/>
<path opacity="0.3" d="M25.12 21.12C24.96 21.12 24.88 21.12 24.72 21.04L19.2 17.84C18.88 17.6 18.72 17.2 18.96 16.8C19.2 16.48 19.6 16.32 20 16.56L25.52 19.76C25.84 20 26 20.4 25.76 20.8C25.6 21.04 25.36 21.12 25.12 21.12Z" fill="#6C82C1"/>
<path opacity="0.44" d="M2.87995 21.1201C2.63995 21.1201 2.39995 20.9601 2.23995 20.7201C1.99995 20.4001 2.15995 19.9201 2.47995 19.6801L7.99995 16.4801C8.31995 16.2401 8.79994 16.4001 9.03995 16.7201C9.27994 17.0401 9.11995 17.5201 8.79995 17.7601L3.27995 20.9601C3.19995 21.1201 3.03995 21.1201 2.87995 21.1201Z" fill="#6C82C1"/>
<path opacity="0.3" d="M19.52 11.5201C19.28 11.5201 19.04 11.3601 18.88 11.1201C18.64 10.8001 18.8 10.3201 19.12 10.0801L24.64 6.88008C24.96 6.64008 25.44 6.80008 25.68 7.12008C25.92 7.44008 25.76 7.92008 25.44 8.16008L19.92 11.3601C19.76 11.5201 19.68 11.5201 19.52 11.5201Z" fill="#6C82C1"/>
</svg>
