<svg width="27" height="32" viewBox="0 0 27 32" fill="none" xmlns="http://www.w3.org/2000/svg">
<path d="M6.1875 0.875C2.83594 0.875 0.09375 3.61719 0.09375 6.96875V21.5938C0.0954357 23.0007 0.502133 24.3773 1.26525 25.5593C2.02837 26.7412 3.11564 27.6785 4.39716 28.2591L1.3125 31.3438H4.16925L6.64453 28.8685C6.88828 28.8928 7.15397 28.9062 7.40625 28.9062H19.5938C19.846 28.9062 20.1129 28.8916 20.3555 28.8685L22.8307 31.3438H25.6875L22.6028 28.2591C23.8844 27.6785 24.9716 26.7412 25.7347 25.5593C26.4979 24.3773 26.9046 23.0007 26.9062 21.5938V6.96875C26.9062 3.61719 24.1641 0.875 20.8125 0.875H6.1875ZM6.1875 3.3125H20.8125C22.4212 3.3125 23.7838 4.32162 24.2786 5.75H2.72138C2.97323 5.03328 3.44264 4.41312 4.06405 3.97612C4.68546 3.53912 5.42784 3.30711 6.1875 3.3125ZM2.53125 8.1875H12.2812V15.5H2.53125V8.1875ZM14.7188 8.1875H24.4688V15.5H14.7188V8.1875ZM2.53125 17.9375H24.4688V21.5938C24.4688 24.2982 22.2982 26.4688 19.5938 26.4688H7.40625C4.70184 26.4688 2.53125 24.2982 2.53125 21.5938V17.9375ZM6.79688 20.375C6.31203 20.375 5.84703 20.5676 5.5042 20.9104C5.16136 21.2533 4.96875 21.7183 4.96875 22.2031C4.96875 22.688 5.16136 23.153 5.5042 23.4958C5.84703 23.8386 6.31203 24.0312 6.79688 24.0312C7.28172 24.0312 7.74672 23.8386 8.08955 23.4958C8.43239 23.153 8.625 22.688 8.625 22.2031C8.625 21.7183 8.43239 21.2533 8.08955 20.9104C7.74672 20.5676 7.28172 20.375 6.79688 20.375ZM20.2031 20.375C19.7183 20.375 19.2533 20.5676 18.9104 20.9104C18.5676 21.2533 18.375 21.7183 18.375 22.2031C18.375 22.688 18.5676 23.153 18.9104 23.4958C19.2533 23.8386 19.7183 24.0312 20.2031 24.0312C20.688 24.0312 21.153 23.8386 21.4958 23.4958C21.8386 23.153 22.0312 22.688 22.0312 22.2031C22.0312 21.7183 21.8386 21.2533 21.4958 20.9104C21.153 20.5676 20.688 20.375 20.2031 20.375Z" fill="#193C9D"/>
</svg>
