<svg width="32" height="38" viewBox="0 0 32 38" fill="none" xmlns="http://www.w3.org/2000/svg">
<path d="M11.7333 0.700791C10.1428 0.693391 8.57553 1.0685 7.17346 1.79212C5.7714 2.51574 4.57888 3.56501 3.70396 4.84485C2.82904 6.12469 2.29937 7.59465 2.16294 9.12154C2.02651 10.6484 2.28764 12.184 2.92267 13.5891C1.06667 15.3363 0 17.7207 0 20.2285C0 25.3674 4.26667 29.4785 9.6 29.4785C10.6667 29.4785 11.7333 29.2524 12.8 28.9029V37.7007H17.0667V26.9502C18.1333 27.2379 19.2 27.4229 20.2667 27.4229C21.8075 27.4229 23.3333 27.1305 24.7568 26.5624C26.1804 25.9942 27.4738 25.1614 28.5634 24.1116C29.6529 23.0618 30.5172 21.8155 31.1069 20.4439C31.6965 19.0722 32 17.6021 32 16.1174C32 14.6328 31.6965 13.1626 31.1069 11.791C30.5172 10.4193 29.6529 9.17302 28.5634 8.1232C27.4738 7.07339 26.1804 6.24063 24.7568 5.67247C23.3333 5.10432 21.8075 4.81189 20.2667 4.81189H19.712C17.9413 2.26301 14.9333 0.700791 11.7333 0.700791ZM11.7333 4.81189C14.5493 4.81189 16.8747 6.92911 17.0667 9.64243C18.048 9.16966 19.2 8.92299 20.2667 8.92299C22.247 8.92299 24.1461 9.68097 25.5464 11.0302C26.9467 12.3794 27.7333 14.2093 27.7333 16.1174C27.7333 18.0255 26.9467 19.8554 25.5464 21.2046C24.1461 22.5539 22.247 23.3118 20.2667 23.3118C18.2187 23.3118 16.2773 22.5102 14.848 21.0713C14.6449 22.2711 14.0054 23.3621 13.0439 24.1492C12.0824 24.9363 10.8617 25.3681 9.6 25.3674C8.18551 25.3674 6.82896 24.826 5.82876 23.8622C4.82857 22.8985 4.26667 21.5914 4.26667 20.2285C4.26667 17.3919 5.97333 16.1996 8.53333 14.658C6.82667 12.5408 6.4 11.3074 6.4 9.95076C6.4 8.58785 6.9619 7.28076 7.9621 6.31703C8.96229 5.35331 10.3188 4.81189 11.7333 4.81189Z" fill="#A0D89B"/>
</svg>
