<svg width="26" height="38" viewBox="0 0 26 38" fill="none" xmlns="http://www.w3.org/2000/svg">
<path d="M22.3948 8.8674C20.3281 5.36595 17.3942 2.45601 13.8759 0.418184L13.25 0.0561523L12.6241 0.418184C9.0459 2.4832 6.07472 5.45418 4.00946 9.03221C1.94421 12.6102 0.857743 16.6691 0.859377 20.8004C0.859377 21.0695 0.864064 21.3429 0.873205 21.6129C0.99758 25.2735 2.3975 28.3537 4.92164 30.5205C6.8532 32.1787 9.33086 33.191 12.0003 33.4325V37.7502H14.5003V17.7502H12V30.9165C7.77625 30.4272 3.57242 27.4434 3.37156 21.5279C3.36328 21.2861 3.35906 21.0413 3.35906 20.8004C3.3665 17.2331 4.27754 13.7259 6.00714 10.6061C7.73675 7.4862 10.2285 4.85535 13.25 2.95904C16.2714 4.85539 18.7631 7.48625 20.4927 10.6061C22.2222 13.726 23.1332 17.2332 23.1406 20.8004C23.1406 21.0413 23.1364 21.2861 23.1281 21.5279C22.9675 26.2602 20.2448 29.116 16.9997 30.3198V32.9657C18.6836 32.4884 20.2452 31.6544 21.5784 30.5204C24.1025 28.3536 25.5024 25.2733 25.6268 21.6128C25.6359 21.3428 25.6406 21.0694 25.6406 20.8003C25.6429 16.6043 24.5221 12.4841 22.3948 8.8674Z" fill="#A0D89B"/>
<path d="M11.3259 12.9326H15.3709V26.8652H11.3259V12.9326Z" fill="#BB0101"/>
<path d="M13.3482 28.6631C12.9481 28.6631 12.5571 28.7817 12.2245 29.0039C11.8919 29.2262 11.6327 29.542 11.4796 29.9116C11.3266 30.2811 11.2865 30.6878 11.3645 31.0801C11.4426 31.4724 11.6352 31.8328 11.9181 32.1157C12.2009 32.3985 12.5613 32.5911 12.9536 32.6692C13.3459 32.7472 13.7526 32.7071 14.1221 32.5541C14.4917 32.401 14.8075 32.1418 15.0298 31.8092C15.252 31.4766 15.3706 31.0856 15.3706 30.6856C15.3706 30.1492 15.1575 29.6347 14.7783 29.2555C14.399 28.8762 13.8845 28.6631 13.3482 28.6631Z" fill="#DA737B"/>
</svg>
