<svg width="30" height="40" viewBox="0 0 30 40" fill="none" xmlns="http://www.w3.org/2000/svg">
<circle cx="15" cy="15" r="15" fill="#DAE0EF"/>
<path d="M29.5 18.2951C27.3603 26.3519 17.7726 37.3672 14.7281 40C11.4026 36.8763 3.08853 27.6663 0.5 18.2951C0.5 9.57078 8.86056 14.2569 13.6246 14.2569C18.3887 14.2569 31.6397 10.2383 29.5 18.2951Z" fill="#DAE0EF"/>
<path d="M13.5 19.9801H15.9375V19.8182C15.9716 17.858 16.5341 16.9801 17.983 16.0852C19.5085 15.1648 20.446 13.8693 20.446 11.9517C20.446 9.18182 18.3494 7.30682 15.2216 7.30682C12.3494 7.30682 10.0483 8.98579 9.9375 12.054H12.5284C12.6307 10.2472 13.9176 9.45454 15.2216 9.45454C16.6705 9.45454 17.8466 10.4176 17.8466 11.9261C17.8466 13.196 17.054 14.0909 16.0398 14.7216C14.4545 15.6932 13.517 16.6562 13.5 19.8182V19.9801ZM14.7869 25.1619C15.7159 25.1619 16.4915 24.4034 16.4915 23.4574C16.4915 22.5284 15.7159 21.7614 14.7869 21.7614C13.8494 21.7614 13.0824 22.5284 13.0824 23.4574C13.0824 24.4034 13.8494 25.1619 14.7869 25.1619Z" fill="white"/>
</svg>
