<svg width="32" height="26" viewBox="0 0 32 26" fill="none" xmlns="http://www.w3.org/2000/svg">
<path d="M16.471 0.612827C16.3263 0.538746 16.1649 0.5 16.001 0.5C15.8371 0.5 15.6757 0.538746 15.531 0.612827L0.530759 8.30553C0.371011 8.3876 0.237444 8.50985 0.144317 8.65922C0.0511896 8.8086 0.00200003 8.97949 0.00200003 9.15365C0.00200003 9.32781 0.0511896 9.4987 0.144317 9.64807C0.237444 9.79745 0.371011 9.9197 0.530759 10.0018L6.37685 13L0.528759 15.9982C0.369011 16.0803 0.235444 16.2026 0.142317 16.3519C0.0491895 16.5013 0 16.6722 0 16.8464C0 17.0205 0.0491895 17.1914 0.142317 17.3408C0.235444 17.4901 0.369011 17.6124 0.528759 17.6945L15.529 25.3872C15.6737 25.4613 15.8351 25.5 15.999 25.5C16.1629 25.5 16.3243 25.4613 16.469 25.3872L31.4692 17.6945C31.629 17.6124 31.7626 17.4901 31.8557 17.3408C31.9488 17.1914 31.998 17.0205 31.998 16.8464C31.998 16.6722 31.9488 16.5013 31.8557 16.3519C31.7626 16.2026 31.629 16.0803 31.4692 15.9982L25.6272 13L31.4712 10.0018C31.631 9.9197 31.7646 9.79745 31.8577 9.64807C31.9508 9.4987 32 9.32781 32 9.15365C32 8.97949 31.9508 8.8086 31.8577 8.65922C31.7646 8.50985 31.631 8.3876 31.4712 8.30553L16.471 0.612827ZM23.5011 14.0904L28.8772 16.8464L16.001 23.4486L3.1248 16.8464L8.50088 14.0904L15.531 17.6945C15.6757 17.7686 15.8371 17.8073 16.001 17.8073C16.1649 17.8073 16.3263 17.7686 16.471 17.6945L23.5011 14.0904ZM16.001 15.7559L3.1248 9.15365L16.001 2.55139L28.8772 9.15365L16.001 15.7559Z" fill="white"/>
</svg>
