<svg width="22" height="26" viewBox="0 0 22 26" fill="none" xmlns="http://www.w3.org/2000/svg">
<path d="M11 0.75C13.7848 0.75 16.4555 1.85625 18.4246 3.82538C20.3938 5.79451 21.5 8.46523 21.5 11.25C21.5 16.2673 18.1137 20.8855 11.469 25.1135C11.3288 25.2025 11.1661 25.2498 11 25.2498C10.8339 25.2498 10.6712 25.2025 10.531 25.1135C3.88625 20.8855 0.5 16.2673 0.5 11.25C0.5 8.46523 1.60625 5.79451 3.57538 3.82538C5.54451 1.85625 8.21523 0.75 11 0.75V0.75ZM11 2.5C8.67936 2.5 6.45376 3.42187 4.81282 5.06282C3.17187 6.70376 2.25 8.92936 2.25 11.25C2.25 15.3188 4.945 19.2265 10.44 22.961L11 23.3337L11.56 22.961C17.055 19.2265 19.75 15.3188 19.75 11.25C19.75 8.92936 18.8281 6.70376 17.1872 5.06282C15.5462 3.42187 13.3206 2.5 11 2.5V2.5ZM11 8.625C11.3447 8.625 11.6861 8.6929 12.0045 8.82482C12.323 8.95673 12.6124 9.15009 12.8562 9.39384C13.0999 9.6376 13.2933 9.92698 13.4252 10.2455C13.5571 10.5639 13.625 10.9053 13.625 11.25C13.625 11.5947 13.5571 11.9361 13.4252 12.2545C13.2933 12.573 13.0999 12.8624 12.8562 13.1062C12.6124 13.3499 12.323 13.5433 12.0045 13.6752C11.6861 13.8071 11.3447 13.875 11 13.875C10.3038 13.875 9.63613 13.5984 9.14384 13.1062C8.65156 12.6139 8.375 11.9462 8.375 11.25C8.375 10.5538 8.65156 9.88613 9.14384 9.39384C9.63613 8.90156 10.3038 8.625 11 8.625V8.625Z" fill="white"/>
</svg>
