<svg width="24" height="24" viewBox="0 0 24 24" fill="none" xmlns="http://www.w3.org/2000/svg">
<path d="M10 8.971e-07C8.895 8.971e-07 8 0.895001 8 2V2.063L2.937 5.25C2.64977 5.0914 2.32806 5.00557 2 5C0.895 5 0 5.895 0 7C0 7.738 0.402 8.371 1 8.719V20.28C0.402 20.628 0 21.26 0 21.999C0 23.104 0.895 23.999 2 23.999C2.738 23.999 3.371 23.597 3.719 22.999H16.28C16.628 23.597 17.26 23.999 17.999 23.999C19.104 23.999 19.999 23.104 19.999 21.999C19.999 21.601 19.889 21.218 19.686 20.905L22.125 16C22.6112 15.968 23.069 15.7601 23.413 15.4151C23.7571 15.0701 23.9637 14.6116 23.9943 14.1254C24.025 13.6391 23.8775 13.1584 23.5795 12.7729C23.2815 12.3875 22.8533 12.1238 22.375 12.031L20.469 6.313C20.785 5.957 21 5.511 21 5C21 3.895 20.105 3 19 3C18.488 3 18.043 3.215 17.687 3.531L11.97 1.594C11.8742 1.14272 11.6261 0.738083 11.2675 0.447887C10.9088 0.157692 10.4613 -0.000434587 10 8.971e-07ZM11.97 3L17.031 5.375C17.184 6.18 17.821 6.816 18.625 6.969L20.531 12.656C20.1918 13.0216 20.0023 13.5013 20 14C20 14.414 20.129 14.805 20.344 15.125L17.875 20C17.5474 20.0221 17.2303 20.125 16.9522 20.2995C16.674 20.474 16.4434 20.7146 16.281 21H3.72C3.54669 20.7017 3.29851 20.4539 3 20.281V8.72C3.598 8.372 4 7.74 4 7.001V6.938L9.063 3.751C9.343 3.899 9.66 4.001 10 4.001C10.504 4.001 11.617 3.309 11.97 3Z" fill="white"/>
</svg>
