<svg width="30" height="24" viewBox="0 0 30 24" fill="none" xmlns="http://www.w3.org/2000/svg">
<path d="M21.0324 17.2295C22.3621 16.5393 22.1898 13.8796 20.6487 11.2848C19.9877 10.1675 19.1749 9.2627 18.3621 8.63018C17.3902 9.30377 16.2129 9.66906 15.0025 9.67258C13.7904 9.67007 12.611 9.30473 11.6376 8.63018C10.8248 9.2627 10.0142 10.1685 9.35093 11.2848C7.8088 13.8786 7.63865 16.5393 8.97163 17.2295C9.56551 17.5452 10.1919 17.3084 10.8378 16.7275C10.7169 17.3534 10.6563 17.9881 10.6568 18.6241C10.6568 21.5974 11.8923 24 13.4127 24C14.3296 24 14.7836 23.1246 15.0015 21.7857C15.2182 23.1155 15.6734 24 16.5837 24C18.0977 24 19.3428 21.5964 19.3428 18.6241C19.3428 17.9561 19.2757 17.3185 19.1608 16.7285C19.811 17.3104 20.4352 17.5513 21.0313 17.2315L21.0324 17.2295ZM15.0004 8.66054C15.6152 8.66911 16.2258 8.5634 16.7965 8.34955C17.3672 8.1357 17.8867 7.81798 18.3247 7.41489C18.7626 7.0118 19.1104 6.53138 19.3477 6.0016C19.585 5.47182 19.7071 4.90325 19.7069 4.32899C19.7066 3.75473 19.5841 3.18625 19.3464 2.65662C19.1087 2.127 18.7606 1.64681 18.3223 1.244C17.8841 0.841197 17.3644 0.523821 16.7935 0.310343C16.2226 0.0968662 15.612 -0.00844833 14.9971 0.000529261C13.7797 0.0183053 12.6186 0.482525 11.7645 1.29295C10.9104 2.10337 10.4319 3.19497 10.4324 4.33203C10.4328 5.46909 10.9121 6.56037 11.7668 7.37024C12.6214 8.1801 13.7829 8.64356 15.0004 8.66054ZM24.3139 11.4072C25.3042 11.3802 26.2442 10.9938 26.9345 10.3301C27.6247 9.6664 28.0108 8.77763 28.0108 7.85243C28.0108 6.92723 27.6247 6.03845 26.9345 5.37475C26.2442 4.71105 25.3042 4.32467 24.3139 4.29764C23.304 4.29778 22.3356 4.67253 21.6216 5.33947C20.9076 6.00641 20.5066 6.91089 20.5068 7.85394C20.5069 8.797 20.9082 9.70138 21.6224 10.3681C22.3366 11.0349 23.3051 11.4094 24.315 11.4092L24.3139 11.4072ZM28.9522 13.5629C28.4082 12.6439 27.7428 11.9011 27.0752 11.3819C26.2767 11.9344 25.3099 12.2341 24.316 12.2371C23.4968 12.2371 22.7338 12.0276 22.0662 11.6805C22.6038 12.7866 22.9365 13.9069 22.9982 14.9089C23.1001 16.4431 22.5864 17.5806 21.5591 18.112C21.3389 18.2249 21.0995 18.3016 20.8514 18.3387C20.7896 18.7354 20.7474 19.1483 20.7474 19.5835C20.7474 22.0255 21.7606 23.998 23.0102 23.998C23.7623 23.998 24.1372 23.2794 24.315 22.1804C24.4916 23.2734 24.8655 23.998 25.6154 23.998C26.8563 23.998 27.8804 22.0245 27.8804 19.5855C27.8804 19.036 27.823 18.5127 27.7287 18.027C28.2619 18.5056 28.7756 18.703 29.2654 18.4399C30.3567 17.8731 30.2158 15.6891 28.9511 13.5618L28.9522 13.5629ZM5.68687 11.4072C6.43954 11.4068 7.17518 11.198 7.8008 10.8072C8.42641 10.4164 8.9139 9.86119 9.20164 9.21169C9.48938 8.5622 9.56444 7.84762 9.41734 7.15829C9.27024 6.46896 8.90758 5.83584 8.37521 5.33896C7.84284 4.84209 7.16466 4.50378 6.42643 4.3668C5.68819 4.22982 4.92303 4.30033 4.2277 4.5694C3.53236 4.83848 2.93807 5.29404 2.51995 5.87849C2.10184 6.46295 1.87867 7.15005 1.87867 7.85293C1.87896 8.79604 2.28027 9.70044 2.99439 10.3673C3.7085 11.0342 4.67696 11.409 5.68687 11.4092V11.4072ZM8.43411 18.1089C6.70882 17.2133 6.5506 14.5425 7.93993 11.6784C7.2532 12.0425 6.47763 12.2353 5.68795 12.2381C4.65192 12.2381 3.70258 11.9142 2.92446 11.3819C2.25798 11.9001 1.59365 12.6429 1.04746 13.5608C-0.217245 15.6902 -0.355961 17.8741 0.73643 18.4389C1.22411 18.7 1.73887 18.5046 2.26881 18.028C2.17147 18.5418 2.12252 19.0626 2.12251 19.5845C2.12251 22.0255 3.13579 23.997 4.38532 23.997C5.13742 23.997 5.51239 23.2784 5.69012 22.1804C5.86894 23.2734 6.24282 23.998 6.99059 23.998C8.23362 23.998 9.25557 22.0245 9.25557 19.5855C9.25557 19.1473 9.21222 18.7334 9.15045 18.3366C8.89963 18.2997 8.6576 18.2223 8.43519 18.1079L8.43411 18.1089Z" fill="white"/>
</svg>
