<svg width="26" height="26" viewBox="0 0 26 26" fill="none" xmlns="http://www.w3.org/2000/svg">
<path d="M19.9052 7.41112C20.675 7.40285 21.4099 7.08913 21.9484 6.53897C22.4869 5.98881 22.7847 5.24729 22.7764 4.47752C22.7682 3.70776 22.4544 2.97281 21.9043 2.43435C21.3541 1.89589 20.6126 1.59804 19.8428 1.60632C19.0731 1.61459 18.3381 1.92831 17.7997 2.47847C17.2612 3.02863 16.9634 3.77015 16.9716 4.53992C16.9799 5.30968 17.2936 6.04463 17.8438 6.58309C18.3939 7.12154 19.1355 7.4194 19.9052 7.41112Z" stroke="white" stroke-width="2"/>
<path d="M5.98495 8.58834L10.6132 6.92931L17.0295 9.90764L10.6971 14.7345L17.1258 18.8685L13.1252 24.3187" stroke="white" stroke-width="2" stroke-linecap="round" stroke-linejoin="round"/>
<path d="M19.5521 11.2715L21.1169 12.1017L24.5646 8.79271" stroke="white" stroke-width="2" stroke-linecap="round" stroke-linejoin="round"/>
<path d="M8.89182 17.1347L7.1922 19.4241L1.49452 22.7015" stroke="white" stroke-width="2" stroke-linecap="round" stroke-linejoin="round"/>
</svg>
